# xmcd CD database file
#
# Track frame offsets:
#	150
#	28856
#	48391
#	73256
#	104477
#	138176
#	151422
#	170092
#	200773
#	226036
#	261912
#
# Disc length: 3849 seconds
#
# Revision: 0
# Processed by: cddbd v1.5.1PL0 Copyright (c) Steve Scherf et al.
# Submitted via: CDex 1.51
#
DISCID=9f0f070b
DTITLE=Mark Whitfield - Trio Paradise
DYEAR=2005
DGENRE=Jazz
TTITLE0=Invitation
TTITLE1=The Egg and Chinnamon Blues
TTITLE2=The Man I Love
TTITLE3=Chega De Saudada
TTITLE4=Asami's Playland
TTITLE5=The Very Thought of You
TTITLE6=Too Young to Go Steady
TTITLE7=Medgar Eyes' Blues
TTITLE8=Willow Weep for Me
TTITLE9=Wala Wala
TTITLE10=The Way You Look Tonight
EXTD=YEAR: 2005
EXTT0=
EXTT1=
EXTT2=
EXTT3=
EXTT4=
EXTT5=
EXTT6=
EXTT7=
EXTT8=
EXTT9=
EXTT10=
PLAYORDER=
